# xmcd
# Copyright (C) 1995-1998 Ti Kan
#
# Track frame offsets:
#       150
#       22874
#       48120
#       63429
#       77489
#       103274
#       119756
#       134041
#       161964
#       179039
#       203007
#       219916
#       240878
#       256436
#       274259
#       295131
#       317451
#       340240
#
# Disc length: 4756 seconds
#
# Revision: 0
# Processed by: cddbd v1.5.2PL0 Copyright (c) Steve Scherf et al.
# Submitted via: CD-Import v1.0
#
DISCID=0b129212
DTITLE=Various Artist - Pop Couture
DYEAR=2010
DGENRE=
TTITLE0=Glamour Girl
TTITLE1=Hip Hip Chin Chin
TTITLE2=Automatic Samba
TTITLE3=Le Club Mystique
TTITLE4=We Are The People (Shazam Remix)
TTITLE5=The World Is Mine
TTITLE6=Lazy Life
TTITLE7=Life Ain't Easy
TTITLE8=New School Fusion
TTITLE9=Love Is In Town
TTITLE10=Avenue Du Gare
TTITLE11=Lost In You
TTITLE12=Lola's Theme
TTITLE13=One Love
TTITLE14=Somebody
TTITLE15=Ten Minutes
TTITLE16=Every Hour
TTITLE17=My Society
EXTD=
EXTT0=
EXTT1=
EXTT2=
EXTT3=
EXTT4=
EXTT5=
EXTT6=
EXTT7=
EXTT8=
EXTT9=
EXTT10=
EXTT11=
EXTT12=
EXTT13=
EXTT14=
EXTT15=
EXTT16=
EXTT17=
PLAYORDER=
